<mxfile host="app.diagrams.net" modified="2024-04-09T19:15:31.774Z" agent="Mozilla/5.0 (Windows NT 10.0; Win64; x64) AppleWebKit/537.36 (KHTML, like Gecko) Chrome/123.0.0.0 Safari/537.36" etag="YJuJpY3mXbx0IBt0DFm2" version="24.2.3" type="device">
  <diagram id="C5RBs43oDa-KdzZeNtuy" name="Page-1">
    <mxGraphModel dx="1956" dy="1022" grid="1" gridSize="10" guides="1" tooltips="1" connect="1" arrows="1" fold="1" page="1" pageScale="1" pageWidth="827" pageHeight="1169" math="0" shadow="0">
      <root>
        <mxCell id="WIyWlLk6GJQsqaUBKTNV-0" />
        <mxCell id="WIyWlLk6GJQsqaUBKTNV-1" parent="WIyWlLk6GJQsqaUBKTNV-0" />
        <mxCell id="HtoGmDAd6zMjp5LyRYIv-8" style="edgeStyle=orthogonalEdgeStyle;rounded=0;orthogonalLoop=1;jettySize=auto;html=1;exitX=1;exitY=0.5;exitDx=0;exitDy=0;entryX=0;entryY=0.5;entryDx=0;entryDy=0;endArrow=none;endFill=0;" edge="1" parent="WIyWlLk6GJQsqaUBKTNV-1" source="HtoGmDAd6zMjp5LyRYIv-3" target="HtoGmDAd6zMjp5LyRYIv-4">
          <mxGeometry relative="1" as="geometry" />
        </mxCell>
        <mxCell id="HtoGmDAd6zMjp5LyRYIv-3" value="Admin" style="rounded=0;whiteSpace=wrap;html=1;" vertex="1" parent="WIyWlLk6GJQsqaUBKTNV-1">
          <mxGeometry x="130" y="210" width="130" height="70" as="geometry" />
        </mxCell>
        <mxCell id="HtoGmDAd6zMjp5LyRYIv-9" style="edgeStyle=orthogonalEdgeStyle;rounded=0;orthogonalLoop=1;jettySize=auto;html=1;exitX=1;exitY=0.5;exitDx=0;exitDy=0;entryX=0;entryY=0.5;entryDx=0;entryDy=0;endArrow=none;endFill=0;" edge="1" parent="WIyWlLk6GJQsqaUBKTNV-1" source="HtoGmDAd6zMjp5LyRYIv-4" target="HtoGmDAd6zMjp5LyRYIv-7">
          <mxGeometry relative="1" as="geometry" />
        </mxCell>
        <mxCell id="HtoGmDAd6zMjp5LyRYIv-4" value="admin_fornecedor" style="rhombus;whiteSpace=wrap;html=1;" vertex="1" parent="WIyWlLk6GJQsqaUBKTNV-1">
          <mxGeometry x="370" y="205" width="120" height="80" as="geometry" />
        </mxCell>
        <mxCell id="HtoGmDAd6zMjp5LyRYIv-15" style="edgeStyle=orthogonalEdgeStyle;rounded=0;orthogonalLoop=1;jettySize=auto;html=1;exitX=0.5;exitY=1;exitDx=0;exitDy=0;entryX=0.5;entryY=0;entryDx=0;entryDy=0;endArrow=none;endFill=0;" edge="1" parent="WIyWlLk6GJQsqaUBKTNV-1" source="HtoGmDAd6zMjp5LyRYIv-7" target="HtoGmDAd6zMjp5LyRYIv-13">
          <mxGeometry relative="1" as="geometry" />
        </mxCell>
        <mxCell id="HtoGmDAd6zMjp5LyRYIv-7" value="Fornecedor" style="rounded=0;whiteSpace=wrap;html=1;" vertex="1" parent="WIyWlLk6GJQsqaUBKTNV-1">
          <mxGeometry x="570" y="210" width="120" height="70" as="geometry" />
        </mxCell>
        <mxCell id="HtoGmDAd6zMjp5LyRYIv-10" value="(0,n)" style="text;html=1;align=center;verticalAlign=middle;resizable=0;points=[];autosize=1;strokeColor=none;fillColor=none;" vertex="1" parent="WIyWlLk6GJQsqaUBKTNV-1">
          <mxGeometry x="500" y="210" width="50" height="30" as="geometry" />
        </mxCell>
        <mxCell id="HtoGmDAd6zMjp5LyRYIv-11" value="(1,n)" style="text;html=1;align=center;verticalAlign=middle;resizable=0;points=[];autosize=1;strokeColor=none;fillColor=none;" vertex="1" parent="WIyWlLk6GJQsqaUBKTNV-1">
          <mxGeometry x="290" y="205" width="50" height="30" as="geometry" />
        </mxCell>
        <mxCell id="HtoGmDAd6zMjp5LyRYIv-17" style="edgeStyle=orthogonalEdgeStyle;rounded=0;orthogonalLoop=1;jettySize=auto;html=1;exitX=0.5;exitY=1;exitDx=0;exitDy=0;entryX=0.5;entryY=0;entryDx=0;entryDy=0;endArrow=none;endFill=0;" edge="1" parent="WIyWlLk6GJQsqaUBKTNV-1" source="HtoGmDAd6zMjp5LyRYIv-13" target="HtoGmDAd6zMjp5LyRYIv-14">
          <mxGeometry relative="1" as="geometry" />
        </mxCell>
        <mxCell id="HtoGmDAd6zMjp5LyRYIv-13" value="fornecedor_pacote" style="rhombus;whiteSpace=wrap;html=1;" vertex="1" parent="WIyWlLk6GJQsqaUBKTNV-1">
          <mxGeometry x="570" y="393" width="120" height="80" as="geometry" />
        </mxCell>
        <mxCell id="HtoGmDAd6zMjp5LyRYIv-14" value="Pacote" style="rounded=0;whiteSpace=wrap;html=1;" vertex="1" parent="WIyWlLk6GJQsqaUBKTNV-1">
          <mxGeometry x="570" y="610" width="120" height="70" as="geometry" />
        </mxCell>
        <mxCell id="HtoGmDAd6zMjp5LyRYIv-18" value="(1,n)" style="text;html=1;align=center;verticalAlign=middle;resizable=0;points=[];autosize=1;strokeColor=none;fillColor=none;" vertex="1" parent="WIyWlLk6GJQsqaUBKTNV-1">
          <mxGeometry x="640" y="520" width="50" height="30" as="geometry" />
        </mxCell>
        <mxCell id="HtoGmDAd6zMjp5LyRYIv-19" value="(1,1)" style="text;html=1;align=center;verticalAlign=middle;resizable=0;points=[];autosize=1;strokeColor=none;fillColor=none;" vertex="1" parent="WIyWlLk6GJQsqaUBKTNV-1">
          <mxGeometry x="640" y="320" width="50" height="30" as="geometry" />
        </mxCell>
        <mxCell id="HtoGmDAd6zMjp5LyRYIv-26" style="edgeStyle=orthogonalEdgeStyle;rounded=0;orthogonalLoop=1;jettySize=auto;html=1;exitX=1;exitY=1;exitDx=0;exitDy=0;entryX=0;entryY=0;entryDx=0;entryDy=0;endArrow=none;endFill=0;" edge="1" parent="WIyWlLk6GJQsqaUBKTNV-1" source="HtoGmDAd6zMjp5LyRYIv-22" target="HtoGmDAd6zMjp5LyRYIv-3">
          <mxGeometry relative="1" as="geometry" />
        </mxCell>
        <mxCell id="HtoGmDAd6zMjp5LyRYIv-22" value="&lt;u&gt;id&lt;/u&gt;" style="ellipse;whiteSpace=wrap;html=1;" vertex="1" parent="WIyWlLk6GJQsqaUBKTNV-1">
          <mxGeometry x="30" y="140" width="70" height="40" as="geometry" />
        </mxCell>
        <mxCell id="HtoGmDAd6zMjp5LyRYIv-28" style="edgeStyle=orthogonalEdgeStyle;rounded=0;orthogonalLoop=1;jettySize=auto;html=1;exitX=0.5;exitY=1;exitDx=0;exitDy=0;entryX=0.5;entryY=0;entryDx=0;entryDy=0;endArrow=none;endFill=0;" edge="1" parent="WIyWlLk6GJQsqaUBKTNV-1" source="HtoGmDAd6zMjp5LyRYIv-23" target="HtoGmDAd6zMjp5LyRYIv-3">
          <mxGeometry relative="1" as="geometry" />
        </mxCell>
        <mxCell id="HtoGmDAd6zMjp5LyRYIv-23" value="nome" style="ellipse;whiteSpace=wrap;html=1;" vertex="1" parent="WIyWlLk6GJQsqaUBKTNV-1">
          <mxGeometry x="157.5" y="110" width="75" height="40" as="geometry" />
        </mxCell>
        <mxCell id="HtoGmDAd6zMjp5LyRYIv-27" style="edgeStyle=orthogonalEdgeStyle;rounded=0;orthogonalLoop=1;jettySize=auto;html=1;exitX=1;exitY=0.5;exitDx=0;exitDy=0;entryX=0;entryY=1;entryDx=0;entryDy=0;endArrow=none;endFill=0;" edge="1" parent="WIyWlLk6GJQsqaUBKTNV-1" source="HtoGmDAd6zMjp5LyRYIv-24" target="HtoGmDAd6zMjp5LyRYIv-3">
          <mxGeometry relative="1" as="geometry" />
        </mxCell>
        <mxCell id="HtoGmDAd6zMjp5LyRYIv-24" value="e-mail" style="ellipse;whiteSpace=wrap;html=1;" vertex="1" parent="WIyWlLk6GJQsqaUBKTNV-1">
          <mxGeometry x="20" y="280" width="70" height="40" as="geometry" />
        </mxCell>
        <mxCell id="HtoGmDAd6zMjp5LyRYIv-35" style="edgeStyle=orthogonalEdgeStyle;rounded=0;orthogonalLoop=1;jettySize=auto;html=1;exitX=0.5;exitY=1;exitDx=0;exitDy=0;entryX=1;entryY=0;entryDx=0;entryDy=0;endArrow=none;endFill=0;" edge="1" parent="WIyWlLk6GJQsqaUBKTNV-1" source="HtoGmDAd6zMjp5LyRYIv-29" target="HtoGmDAd6zMjp5LyRYIv-7">
          <mxGeometry relative="1" as="geometry" />
        </mxCell>
        <mxCell id="HtoGmDAd6zMjp5LyRYIv-29" value="e-mail" style="ellipse;whiteSpace=wrap;html=1;" vertex="1" parent="WIyWlLk6GJQsqaUBKTNV-1">
          <mxGeometry x="720" y="130" width="70" height="40" as="geometry" />
        </mxCell>
        <mxCell id="HtoGmDAd6zMjp5LyRYIv-36" style="edgeStyle=orthogonalEdgeStyle;rounded=0;orthogonalLoop=1;jettySize=auto;html=1;exitX=0;exitY=0.5;exitDx=0;exitDy=0;entryX=1;entryY=0.5;entryDx=0;entryDy=0;endArrow=none;endFill=0;" edge="1" parent="WIyWlLk6GJQsqaUBKTNV-1" source="HtoGmDAd6zMjp5LyRYIv-30" target="HtoGmDAd6zMjp5LyRYIv-7">
          <mxGeometry relative="1" as="geometry" />
        </mxCell>
        <mxCell id="HtoGmDAd6zMjp5LyRYIv-30" value="endereÃ§o" style="ellipse;whiteSpace=wrap;html=1;" vertex="1" parent="WIyWlLk6GJQsqaUBKTNV-1">
          <mxGeometry x="730" y="225" width="70" height="40" as="geometry" />
        </mxCell>
        <mxCell id="HtoGmDAd6zMjp5LyRYIv-33" style="edgeStyle=orthogonalEdgeStyle;rounded=0;orthogonalLoop=1;jettySize=auto;html=1;exitX=0.5;exitY=1;exitDx=0;exitDy=0;endArrow=none;endFill=0;" edge="1" parent="WIyWlLk6GJQsqaUBKTNV-1" source="HtoGmDAd6zMjp5LyRYIv-31" target="HtoGmDAd6zMjp5LyRYIv-7">
          <mxGeometry relative="1" as="geometry">
            <Array as="points">
              <mxPoint x="575" y="210" />
              <mxPoint x="575" y="210" />
            </Array>
          </mxGeometry>
        </mxCell>
        <mxCell id="HtoGmDAd6zMjp5LyRYIv-31" value="&lt;u&gt;id&lt;/u&gt;" style="ellipse;whiteSpace=wrap;html=1;" vertex="1" parent="WIyWlLk6GJQsqaUBKTNV-1">
          <mxGeometry x="540" y="90" width="70" height="40" as="geometry" />
        </mxCell>
        <mxCell id="HtoGmDAd6zMjp5LyRYIv-34" style="edgeStyle=orthogonalEdgeStyle;rounded=0;orthogonalLoop=1;jettySize=auto;html=1;exitX=0.5;exitY=1;exitDx=0;exitDy=0;entryX=0.88;entryY=-0.006;entryDx=0;entryDy=0;entryPerimeter=0;endArrow=none;endFill=0;" edge="1" parent="WIyWlLk6GJQsqaUBKTNV-1" target="HtoGmDAd6zMjp5LyRYIv-7">
          <mxGeometry relative="1" as="geometry">
            <mxPoint x="675" y="110" as="sourcePoint" />
            <Array as="points">
              <mxPoint x="675" y="160" />
              <mxPoint x="676" y="210" />
            </Array>
          </mxGeometry>
        </mxCell>
        <mxCell id="HtoGmDAd6zMjp5LyRYIv-39" value="" style="edgeStyle=orthogonalEdgeStyle;rounded=0;orthogonalLoop=1;jettySize=auto;html=1;endArrow=none;endFill=0;" edge="1" parent="WIyWlLk6GJQsqaUBKTNV-1" source="HtoGmDAd6zMjp5LyRYIv-38" target="HtoGmDAd6zMjp5LyRYIv-30">
          <mxGeometry relative="1" as="geometry">
            <Array as="points">
              <mxPoint x="730" y="280" />
              <mxPoint x="750" y="280" />
            </Array>
          </mxGeometry>
        </mxCell>
        <mxCell id="HtoGmDAd6zMjp5LyRYIv-38" value="rua" style="ellipse;whiteSpace=wrap;html=1;" vertex="1" parent="WIyWlLk6GJQsqaUBKTNV-1">
          <mxGeometry x="700" y="300" width="60" height="30" as="geometry" />
        </mxCell>
        <mxCell id="HtoGmDAd6zMjp5LyRYIv-40" value="numero" style="ellipse;whiteSpace=wrap;html=1;" vertex="1" parent="WIyWlLk6GJQsqaUBKTNV-1">
          <mxGeometry x="767" y="300" width="60" height="30" as="geometry" />
        </mxCell>
        <mxCell id="HtoGmDAd6zMjp5LyRYIv-41" style="edgeStyle=orthogonalEdgeStyle;rounded=0;orthogonalLoop=1;jettySize=auto;html=1;exitX=0.5;exitY=0;exitDx=0;exitDy=0;entryX=0.752;entryY=0.968;entryDx=0;entryDy=0;entryPerimeter=0;endArrow=none;endFill=0;" edge="1" parent="WIyWlLk6GJQsqaUBKTNV-1" source="HtoGmDAd6zMjp5LyRYIv-40" target="HtoGmDAd6zMjp5LyRYIv-30">
          <mxGeometry relative="1" as="geometry" />
        </mxCell>
        <mxCell id="HtoGmDAd6zMjp5LyRYIv-52" style="edgeStyle=orthogonalEdgeStyle;rounded=0;orthogonalLoop=1;jettySize=auto;html=1;exitX=1;exitY=0.5;exitDx=0;exitDy=0;entryX=0;entryY=0.5;entryDx=0;entryDy=0;endArrow=none;endFill=0;" edge="1" parent="WIyWlLk6GJQsqaUBKTNV-1" source="HtoGmDAd6zMjp5LyRYIv-42" target="HtoGmDAd6zMjp5LyRYIv-14">
          <mxGeometry relative="1" as="geometry" />
        </mxCell>
        <mxCell id="HtoGmDAd6zMjp5LyRYIv-42" value="&lt;u&gt;id&lt;/u&gt;" style="ellipse;whiteSpace=wrap;html=1;" vertex="1" parent="WIyWlLk6GJQsqaUBKTNV-1">
          <mxGeometry x="414" y="625" width="75" height="40" as="geometry" />
        </mxCell>
        <mxCell id="HtoGmDAd6zMjp5LyRYIv-55" style="edgeStyle=orthogonalEdgeStyle;rounded=0;orthogonalLoop=1;jettySize=auto;html=1;exitX=0.5;exitY=0;exitDx=0;exitDy=0;entryX=1;entryY=1;entryDx=0;entryDy=0;endArrow=none;endFill=0;" edge="1" parent="WIyWlLk6GJQsqaUBKTNV-1" source="HtoGmDAd6zMjp5LyRYIv-43">
          <mxGeometry relative="1" as="geometry">
            <mxPoint x="752.5" y="740" as="sourcePoint" />
            <mxPoint x="690" y="650" as="targetPoint" />
            <Array as="points">
              <mxPoint x="752" y="770" />
              <mxPoint x="752" y="650" />
            </Array>
          </mxGeometry>
        </mxCell>
        <mxCell id="HtoGmDAd6zMjp5LyRYIv-43" value="Destino" style="ellipse;whiteSpace=wrap;html=1;" vertex="1" parent="WIyWlLk6GJQsqaUBKTNV-1">
          <mxGeometry x="717.5" y="770" width="75" height="40" as="geometry" />
        </mxCell>
        <mxCell id="HtoGmDAd6zMjp5LyRYIv-53" style="edgeStyle=orthogonalEdgeStyle;rounded=0;orthogonalLoop=1;jettySize=auto;html=1;exitX=1;exitY=0;exitDx=0;exitDy=0;entryX=0;entryY=0.75;entryDx=0;entryDy=0;endArrow=none;endFill=0;" edge="1" parent="WIyWlLk6GJQsqaUBKTNV-1">
          <mxGeometry relative="1" as="geometry">
            <mxPoint x="466.477990914115" y="753.3373536971014" as="sourcePoint" />
            <mxPoint x="580" y="680" as="targetPoint" />
          </mxGeometry>
        </mxCell>
        <mxCell id="HtoGmDAd6zMjp5LyRYIv-44" value="nome" style="ellipse;whiteSpace=wrap;html=1;" vertex="1" parent="WIyWlLk6GJQsqaUBKTNV-1">
          <mxGeometry x="392.5" y="730" width="75" height="40" as="geometry" />
        </mxCell>
        <mxCell id="HtoGmDAd6zMjp5LyRYIv-45" value="descricao" style="ellipse;whiteSpace=wrap;html=1;" vertex="1" parent="WIyWlLk6GJQsqaUBKTNV-1">
          <mxGeometry x="580" y="770" width="75" height="40" as="geometry" />
        </mxCell>
        <mxCell id="HtoGmDAd6zMjp5LyRYIv-50" value="" style="ellipse;whiteSpace=wrap;html=1;" vertex="1" parent="WIyWlLk6GJQsqaUBKTNV-1">
          <mxGeometry x="630" y="60" width="90" height="60" as="geometry" />
        </mxCell>
        <mxCell id="HtoGmDAd6zMjp5LyRYIv-51" value="telefone" style="ellipse;whiteSpace=wrap;html=1;" vertex="1" parent="WIyWlLk6GJQsqaUBKTNV-1">
          <mxGeometry x="640" y="70" width="70" height="40" as="geometry" />
        </mxCell>
        <mxCell id="HtoGmDAd6zMjp5LyRYIv-54" style="edgeStyle=orthogonalEdgeStyle;rounded=0;orthogonalLoop=1;jettySize=auto;html=1;exitX=0.5;exitY=0;exitDx=0;exitDy=0;entryX=0.39;entryY=1.036;entryDx=0;entryDy=0;entryPerimeter=0;endArrow=none;endFill=0;" edge="1" parent="WIyWlLk6GJQsqaUBKTNV-1" source="HtoGmDAd6zMjp5LyRYIv-45" target="HtoGmDAd6zMjp5LyRYIv-14">
          <mxGeometry relative="1" as="geometry" />
        </mxCell>
      </root>
    </mxGraphModel>
  </diagram>
</mxfile>
